# xmcd CD database file
#
# Track frame offsets:
#	150
#	27744
#	45538
#	57253
#	75368
#	102290
#	133053
#	174411
#	188090
#	215425
#	235132
#	248051
#
# Disc length: 3729 seconds
#
# Revision: 4
# Processed by: cddbd v1.5.2PL0 Copyright (c) Steve Scherf et al.
# Submitted via: CDex 1.51
#
DISCID=9c0e8f0c
DTITLE=Sonny Rollins - Best Selection
DYEAR=1994
DGENRE=Jazz
TTITLE0=Don't Stop The Carnival 
TTITLE1=St. Thomas
TTITLE2=I Remember Cliford 
TTITLE3=Round Midnight * 
TTITLE4=The Bridge
TTITLE5=You Do Something To Me
TTITLE6=The Night Has A Thousand Eyes
TTITLE7=Autumn Nocturne
TTITLE8=My One And Only Love
TTITLE9=It Could Happen To You
TTITLE10=Long ago
TTITLE11=At McKies
EXTD=YEAR: 1994
EXTT0=
EXTT1=
EXTT2=
EXTT3=
EXTT4=
EXTT5=
EXTT6=
EXTT7=
EXTT8=
EXTT9=
EXTT10=
EXTT11=
PLAYORDER=
